<?xml version="1.0" standalone="no"?><!DOCTYPE svg PUBLIC "-//W3C//DTD SVG 1.1//EN" "http://www.w3.org/Graphics/SVG/1.1/DTD/svg11.dtd"><svg t="1712737053802" class="icon" viewBox="0 0 1088 1024" version="1.1" xmlns="http://www.w3.org/2000/svg" p-id="1521" xmlns:xlink="http://www.w3.org/1999/xlink" width="212.5" height="200"><path d="M972.298912 790.448083c-31.060997 45.722371-76.791953 32.988092-76.791952 32.988093 9.171943 27.429989-5.07311 65.113498-5.07311 65.113498-31.400063 62.950345-26.97504 101.711139-26.975041 101.711139-43.91116-21.906222-50.108766-110.930293-36.005348-139.205801s-16.193608-48.452065-16.193608-48.452065l23.66593-74.19531s42.675072 70.027806 105.136132 16.708644c52.332007-44.662255 108.260687-26.42996 108.260687-26.42996s-30.829231 5.223329-76.02369 71.761762z" fill="#B1CFE0" p-id="1522"></path><path d="M856.158166 762.872167c55.327804 67.735893 94.57359 12.64844 94.57359 12.64844 33.430165-50.50792 97.582262-56.834285 97.582262-56.834286-18.103535 6.05168-40.889612 23.095098-73.409879 73.598726-21.361142 33.176939-81.33715 38.09983-81.33715 38.099831s26.75615 6.425081-3.137431 58.164796c-29.902165 51.735423-26.979332 101.711139-26.979333 101.711139-35.855129-17.888937-58.490986-89.058407-40.456122-125.213974s-40.314487-85.337268-40.314488-85.337268c48.383394-0.639504 73.478551-16.837404 73.478551-16.837404zM600.910334 247.801262c149.236138-7.14184 272.771951 160.476811 256.106226 193.864056 0 0-100.784073-77.753354-198.065897-69.654404-91.839604 7.639709-117.222323-45.95843-100.56089-79.345675 16.652849-33.391538-49.52935-40.451831 42.520561-44.863977z" fill="#9FC1D4" p-id="1523"></path><path d="M723.519081 305.257883c136.128457 67.92474 133.497479 136.411727 133.497479 136.411727 16.665725-33.387246-106.870088-201.005897-256.106226-193.864056-10.802892 0.519329-19.343915 1.072993-26.176734 1.69962 18.498397 64.52979 113.75441 122.501448 113.853126 122.565828 0 0.004292 0 0 0 0-0.012876-0.034336-46.288912-107.342205 34.932355-66.813119z" fill="#C0DDED" p-id="1524"></path><path d="M95.084335 449.841524c-7.14184-11.511067-12.914542-22.760324-17.318105-33.691976-17.197929-35.189874-39.606312-86.84375-30.395741-100.548014C61.705673 294.27902 91.487663 304.72997 91.487663 304.72997v0.017168c11.644118-12.609812 27.464325-23.464208 47.559335-32.202661 101.324861-44.065671 250.629671-101.857066 389.427734 41.863889 138.815231 143.733831 343.649567 529.324543 278.321471 481.752331-149.369189-151.910036-390.303297-79.487311-566.123906-203.782802-68.933353-48.731043-117.501301-97.419167-145.381948-142.205889v0.042919l-0.206014-0.373401z" fill="#D4DBDE" p-id="1525"></path><path d="M579.841046 201.023065c124.544427 128.956573 146.613744 306.777241 207.297928 441.085902 57.01884 126.175376 98.586583 123.492894 68.160798 152.880022-79.487311 76.761909-285.802377-349.654035-563.385628-435.351828-151.249073-46.696649-205.945956-74.989325-241.389057-133.815085C-0.394861 141.295991 16.575594 31.060997 81.659048 28.039449c121.428455-5.643942 296.36921-35.96672 498.181998 172.983616z" fill="#B1CFE0" p-id="1526"></path><path d="M42.503393 51.636708c124.540135-2.643854 296.622436-12.107651 502.044772 200.585284 134.570472 139.343144 176.807762 313.056395 280.686347 461.683073 1.802628 2.583767 0 0 1.703912 2.489344-11.064702-17.614251-23.734602-43.790984-37.322983-73.843368-60.684184-134.30437-82.753501-312.125037-207.302219-441.085903C380.509018-7.48949 205.585431 22.83758 84.1441 28.47723c-17.502659 0.815475-31.48161 9.425169-41.640707 23.159478z" fill="#C0DDED" p-id="1527"></path><path d="M104.488044 50.76973c0 45.71808 50.980036 93.127196 50.980037 93.127196-73.551514-108.385154 42.872502-86.569063 42.872502-86.569064S104.488044 5.047358 104.488044 50.76973z" fill="#C0DDED" p-id="1528"></path><path d="M50.520796 225.817784c35.4431 58.82576 90.139984 87.118436 241.384764 133.815085 277.587543 85.702085 483.906901 512.113737 563.381336 435.35612 17.511243-16.901783 10.2106-18.953346-9.180527-45.280298 0 0-7.274892 51.739715-56.748446-3.008672-49.460679-54.748387-201.804204-387.264581-437.90126-483.095719-206.928818-83.989589-209.117723-137.905334-239.37183-200.353517-8.669782-17.918981-23.974952-32.945173-46.894079-31.824968C14.06479 50.846985 4.210424 148.95716 50.520796 225.817784z" fill="#9FC1D4" p-id="1529"></path><path d="M306.498263 134.793654m-22.494223 0a22.494222 22.494222 0 1 0 44.988445 0 22.494222 22.494222 0 1 0-44.988445 0Z" fill="#6E6E96" p-id="1530"></path><path d="M346.4651 576.252958C243.826896 558.067875 67.040593 382.912522 86.646319 386.384727c54.825643 9.712731 153.983058 48.28897 219.27682 34.949523 128.86215-26.322661 316.932045 228.577522 316.932045 228.577521 85.792217 86.933881-103.874292-43.091393-276.390084-73.658813z" fill="#E8EFF2" p-id="1531"></path><path d="M466.262607 635.267565c0.626628 28.610281-33.777815 53.877117-63.053352-18.326718-29.271245-72.199543-4.729752-157.322212-4.729753-157.322212 22.047857-47.125846 67.139309 147.030065 67.783105 175.64893z" fill="#DCE3E6" p-id="1532"></path><path d="M505.941882 802.4141c62.422432 53.782694 6.927242-93.813911 76.852041-233.963946 27.442865-54.988738-102.556657-130.205537-102.556657-130.205537-136.059786-117.020601-36.709232 310.373913 25.704616 364.169483z" fill="#9FC1D4" p-id="1533"></path><path d="M505.941882 802.4141c48.782547 36.245699 27.528705-13.571214 37.580502-75.555865-0.004292 0.02146 0.004292-0.034336 0 0-21.399769 196.379152-69.62436-111.724308-77.688975-190.941224-13.880236-136.274384 61.967483-68.280973 61.967484-68.280974 0.93565-41.572035 12.850162 10.382279-3.849899-11.519651-25.455682-22.863332-43.709437-17.871769-43.709436-17.871769-12.62698-10.858688-23.219565-17.013375-32.005231-19.228032-3.128847-0.472117-6.223359-0.716759-9.304994-0.811182-69.834667 6.648264 9.369374 341.374822 67.010549 384.208697z" fill="#B1CFE0" p-id="1534"></path><path d="M513.787606 957.169713c10.82006 17.773054 6.274862 27.206807-2.970044 32.829289-9.25349 5.635358-19.725901 5.330628-30.537377-12.429549-10.82006-17.773054-19.339623-48.662372-10.090425-54.284854 9.25349-5.63965 32.777786 16.120645 43.597846 33.885114z" fill="#61A7D9" opacity=".42" p-id="1535"></path><path d="M602.021954 831.376323c6.399329 10.506746 4.373519 15.704323-0.309022 18.545608-4.669665 2.849869-10.2106 2.270453-16.614221-8.249169s-12.099067-28.408559-7.42511-31.249844c4.665373-2.845577 17.940441 10.420907 24.348353 20.953405z" fill="#61A7D9" opacity=".26" p-id="1536"></path><path d="M804.976407 163.429688c9.189111 5.918629 7.644001 13.8459 2.639562 21.61866-5.004439 7.777052-11.575447 12.451009-20.777433 6.53238-9.201987-5.918629-18.751623-20.992032-13.742893-28.764792 5.004439-7.77276 22.674485-5.304877 31.880764 0.613752z" fill="#61A7D9" opacity=".31" p-id="1537"></path><path d="M952.225362 638.611011c6.403621 10.511038 4.373519 15.708615-0.30473 18.545608-4.669665 2.849869-10.214892 2.270453-16.618513-8.249169-6.395037-10.51533-12.094775-28.408559-7.420819-31.245552 4.661081-2.845577 17.940441 10.429491 24.344062 20.949113z" fill="#61A7D9" opacity=".26" p-id="1538"></path><path d="M325.176922 780.555089c6.047388 9.931622 2.193197 16.026221-4.613869 20.15939-6.794191 4.150336-13.966075 4.772672-20.017755-5.163241-6.05168-9.935914-9.502425-28.017989-2.69965-32.164034 6.794191-4.146044 21.279594 7.219096 27.331274 17.167885z" fill="#61A7D9" opacity=".51" p-id="1539"></path><path d="M131.231318 359.675789s-75.749003-59.418052-19.558514-40.232941c56.19049 19.185112 173.022244 47.851189 194.37051 44.881146 0 0-217.66733-62.70141-260.157848-139.450444 0.004292 0-17.073462 95.543576 85.345852 134.802239z" fill="#E8EFF2" p-id="1540"></path></svg>